<svg data-v-423bf9ae="" xmlns="http://www.w3.org/2000/svg" viewBox="0 0 274.2076395562896 60" class="font"><!----><!----><!----><g data-v-423bf9ae="" id="56ee7a9e-a459-46ac-ad04-ca10ad0b467c" fill="black" transform="matrix(5.464480627514198,0,0,5.464480627514198,-6.557376706203058,-17.267758536709266)"><path d="M1.20 13.97L3.53 13.97C6.08 13.97 6.71 12.81 6.71 10.28L6.71 7.11C6.71 4.48 6.12 3.30 3.57 3.30L1.20 3.30ZM6.36 10.25C6.36 12.47 5.94 13.66 3.53 13.66L1.55 13.66L1.55 3.61L3.49 3.61C5.94 3.61 6.36 4.72 6.36 7.18ZM9.00 8.74C9.00 6.59 9.51 5.98 11.12 5.98C12.73 5.98 13.23 6.59 13.23 8.74L13.23 11.07C13.23 13.22 12.73 13.83 11.12 13.83C9.51 13.83 9.00 13.22 9.00 11.07ZM8.67 11.12C8.67 13.51 9.39 14.14 11.10 14.14C12.81 14.14 13.57 13.51 13.57 11.12L13.57 8.69C13.57 6.30 12.82 5.67 11.12 5.67C9.41 5.67 8.67 6.30 8.67 8.69ZM15.67 5.84L15.67 13.97L16.00 13.97L16.00 8.08C16.00 6.73 16.90 5.98 18.14 5.98C19.77 5.98 20.22 6.79 20.22 8.57L20.22 13.97L20.55 13.97L20.55 8.57C20.55 6.76 20.12 5.67 18.19 5.67C17.12 5.67 16.41 6.15 16.03 6.85L15.97 5.84ZM22.79 5.84L22.79 13.97L23.13 13.97L23.13 8.08C23.13 6.73 24.02 5.98 25.27 5.98C26.89 5.98 27.34 6.79 27.34 8.57L27.34 13.97L27.68 13.97L27.68 8.57C27.68 6.76 27.24 5.67 25.31 5.67C24.25 5.67 23.53 6.15 23.16 6.85L23.10 5.84ZM30.25 5.84L29.92 5.84L29.92 13.97L30.25 13.97ZM29.90 3.82L30.27 3.82L30.27 3.16L29.90 3.16ZM36.71 11.97C36.69 13.19 36.19 13.83 34.79 13.83C33.19 13.83 32.69 12.98 32.69 11.12L32.69 9.86L37.11 9.86L37.11 8.60C37.11 6.58 36.44 5.67 34.76 5.67C33.15 5.67 32.35 6.45 32.35 8.74L32.35 11.16C32.35 13.36 33.08 14.14 34.79 14.14C36.32 14.14 37.04 13.44 37.04 11.97ZM32.69 9.55L32.69 8.72C32.69 6.76 33.19 5.98 34.76 5.98C36.37 5.98 36.78 6.89 36.78 8.64L36.78 9.55ZM44.18 3.30L38.49 3.30L38.49 3.64L41.16 3.64L41.16 13.97L41.51 13.97L41.51 3.64L44.18 3.64ZM45.88 13.97L48.20 13.97C50.75 13.97 51.38 12.81 51.38 10.28L51.38 7.11C51.38 4.48 50.79 3.30 48.24 3.30L45.88 3.30ZM51.03 10.25C51.03 12.47 50.61 13.66 48.20 13.66L46.23 13.66L46.23 3.61L48.16 3.61C50.61 3.61 51.03 4.72 51.03 7.18Z"></path></g><!----><!----></svg>